<?xml version="1.0" encoding="utf-8" ?>	<!-- Generator: Assembly 1.8 - http://assemblyapp.co -->	<svg version="1.1" xmlns="http://www.w3.org/2000/svg" xmlns:xlink="http://www.w3.org/1999/xlink" width="2048.00" height="2048.00" viewBox="0 0 2048.0 2048.0">		<rect x="0" y="0" width="2048.00" height="2048.00" fill="#7af9ff" />		<g id="document" transform="matrix(1,0,0,1,1024.0,1024.0)">			<path d="M-1003.88,1056.42 L-1003.88,578.088 L1047.42,578.088 L1047.42,1056.42 L-1003.88,1056.42 Z " fill="#ffb738" fill-opacity="1.00" />			<path d="M860.522,77.5926 C817.836,-94.5754 665.588,-226.904 487.728,-236.863 C248.684,-253.937 48.0587,-61.8478 48.0589,178.617 C48.0589,192.846 49.4814,209.92 52.3282,226.995 C58.0201,265.413 72.2489,306.676 90.7454,340.826 L459.272,996.772 L830.642,336.556 C856.255,293.869 869.059,245.491 871.906,195.69 C874.751,158.698 870.483,116.011 860.522,77.5926 Z " fill="#38ff41" fill-opacity="1.00" />			<path d="M593.471,132.808 C593.471,205.746 534.343,264.874 461.405,264.874 C388.467,264.874 329.339,205.746 329.339,132.808 C329.339,59.8699 388.467,0.741495 461.405,0.741442 C534.343,0.74139 593.471,59.8697 593.471,132.808 Z " fill="#f8fcff" fill-opacity="1.00" />			<path d="M501.729,-475.293 C433.366,-751.019 189.542,-962.942 -95.3,-978.892 C-478.129,-1006.23 -799.43,-698.605 -799.429,-313.5 C-799.429,-290.713 -797.151,-263.369 -792.592,-236.023 C-783.476,-174.498 -760.689,-108.414 -731.067,-53.724 L-140.871,996.772 L453.877,-60.5634 C494.895,-128.926 515.401,-206.403 519.96,-286.159 C524.517,-345.403 517.682,-413.765 501.729,-475.293 Z " fill="#ff1200" fill-opacity="1.00" />			<path d="M100.402,0.843544 L-378.484,0.843887 L-378.485,-598.109 L100.401,-598.109 L100.402,0.843544 Z " fill="#f7f9ff" fill-opacity="1.00" />			<path d="M42.9192,75.4488 L-321.211,75.4491 C-353.21,75.4491 -378.589,49.5189 -378.589,18.071 L-378.589,-345.507 C-378.589,-377.507 -352.659,-402.885 -321.211,-402.885 L42.9189,-402.886 C74.9184,-402.886 100.297,-376.956 100.297,-345.508 L100.297,18.6222 C99.7451,50.0702 74.3665,75.4488 42.9192,75.4488 Z " fill="#f7f9ff" fill-opacity="1.00" />			<path d="M26.4752,-49.7266 L-26.5683,-49.7266 L-26.5687,-578.946 L26.4748,-578.946 L26.4752,-49.7266 Z " fill="#ff481c" fill-opacity="1.00" />			<path d="M-112.905,-49.6923 L-165.949,-49.6923 L-165.949,-578.912 L-112.906,-578.912 L-112.905,-49.6923 Z " fill="#ff481c" fill-opacity="1.00" />			<path d="M-244.611,-49.6922 L-297.655,-49.6922 L-297.655,-578.912 L-244.611,-578.912 L-244.611,-49.6922 Z " fill="#ff481c" fill-opacity="1.00" />			<path d="M120.911,-721.774 L109.883,-782.446 L-400.943,-689.595 L-389.915,-628.923 L120.911,-721.774 Z " fill="#f7f9ff" fill-opacity="1.00" />			<path d="M-211.608,-716.653 C-217.666,-745.187 -191.417,-774.762 -152.747,-782.972 C-114.078,-791.182 -78.0771,-774.823 -72.0191,-746.288 L-25.3321,-756.2 C-35.4166,-803.7 -95.6902,-831.089 -160.061,-817.422 C-224.433,-803.756 -268.379,-754.241 -258.295,-706.741 L-211.608,-716.653 Z " fill="#f8fcff" fill-opacity="1.00" />		</g>	</svg>