<?xml version="1.0" encoding="utf-8" ?>	<!-- Generator: Assembly 1.8 - http://assemblyapp.co -->	<svg version="1.1" xmlns="http://www.w3.org/2000/svg" xmlns:xlink="http://www.w3.org/1999/xlink" width="2048.00" height="1152.00" viewBox="0 0 2048.0 1152.0">		<rect x="0" y="0" width="2048.00" height="1152.00" fill="#ffffff" />		<g id="document" transform="matrix(1,0,0,1,1024.0,576.0)">			<path d="M716.676,-259.331 L956.152,40.6838 C963.32,49.6643 961.844,62.8227 952.863,69.9909 L801.525,190.791 C792.545,197.959 779.387,196.483 772.218,187.502 L532.742,-112.513 C525.574,-121.493 527.051,-134.652 536.031,-141.82 L687.369,-262.62 C696.349,-269.788 709.508,-268.312 716.676,-259.331 Z " fill="#ffffff" fill-opacity="1.00" stroke-width="1.28" stroke="#000000" stroke-linecap="square" stroke-linejoin="miter" />			<path d="M784.487,-67.4123 L688.933,-104.609 L704.308,-3.41301 L799.129,33.4444 L784.487,-67.4123 Z " fill="#ff0707" fill-opacity="1.00" />			<path d="M739.992,125.993 L778.49,140.98 L772.295,100.208 L734.092,85.3579 L739.992,125.993 Z " fill="#ff0707" fill-opacity="1.00" />			<path d="M803.5,123.415 L797.892,127.892 L759.93,107.798 L767.582,101.69 L775.44,106.095 L787.396,96.5514 L784.756,87.9822 L792.234,82.013 L803.5,123.415 Z M793.743,116.541 L789.847,103.991 L782.325,109.995 L793.743,116.541 Z " fill="#ff0707" fill-opacity="1.00" />			<path d="M870.316,21.9668 L908.814,36.9534 L902.62,-3.81849 L864.416,-18.6684 L870.316,21.9668 Z " fill="#ff0707" fill-opacity="1.00" />			<path d="M936.176,65.5079 L930.567,69.9847 L892.605,49.8915 L900.258,43.7835 L908.115,48.1882 L920.072,38.6445 L917.431,30.0753 L924.909,24.1061 L936.176,65.5079 Z M926.418,58.6337 L922.522,46.0841 L915.001,52.0879 L926.418,58.6337 Z " fill="#ff0707" fill-opacity="1.00" />			<path d="M748.207,-197.266 L709.709,-212.253 L715.903,-171.481 L754.107,-156.631 L748.207,-197.266 Z " fill="#ff0707" fill-opacity="1.00" />			<path d="M682.347,-240.807 L687.956,-245.284 L725.917,-225.191 L718.265,-219.083 L710.407,-223.488 L698.451,-213.944 L701.092,-205.375 L693.613,-199.406 L682.347,-240.807 Z M692.105,-233.933 L696.001,-221.384 L703.522,-227.387 L692.105,-233.933 Z " fill="#ff0707" fill-opacity="1.00" />			<path d="M-346.308,506.432 C-352.65,500.09 -352.65,489.823 -346.308,483.482 C-339.967,477.14 -329.7,477.14 -323.358,483.482 C-317.017,489.823 -317.017,500.09 -323.358,506.432 C-329.7,512.773 -339.967,512.773 -346.308,506.432 Z " fill="#ffffff" fill-opacity="1.00" />			<path d="M934.878,52.0692 L786.485,168.055 L711.371,71.9546 C695.476,51.6179 715.747,9.22184 756.656,-22.7528 C797.564,-54.7274 843.868,-64.3684 859.764,-44.0317 L934.878,52.0692 Z " fill="none" stroke-width="2.72" stroke="#000000" stroke-linecap="square" stroke-linejoin="miter" />			<path d="M755.514,-30.6318 C796.397,-62.7377 826.786,-92.3496 823.296,-96.7934 L750.593,-189.373 C741.287,-201.223 700.545,-184.794 659.662,-152.688 C618.779,-120.582 593.16,-84.8972 602.466,-73.0471 L675.17,19.532 C678.659,23.9758 714.632,1.47399 755.514,-30.6318 Z " fill="none" stroke-width="3.04" stroke="#000000" stroke-linecap="square" stroke-linejoin="miter" />			<path d="M829.562,-301.259 L954.988,61.544 C958.743,72.404 952.953,84.312 942.093,88.0664 L759.083,151.336 C748.223,155.09 736.315,149.301 732.561,138.441 L607.134,-224.362 C603.379,-235.222 609.169,-247.13 620.029,-250.884 L803.039,-314.154 C813.899,-317.908 825.807,-312.119 829.562,-301.259 Z " fill="#ffffff" fill-opacity="1.00" stroke-width="0.96" stroke="#000000" stroke-linecap="square" stroke-linejoin="miter" />			<path d="M779.517,-172.728 L736.894,-209.514 L726.278,-154.323 L768.584,-117.847 L779.517,-172.728 Z " fill="#ff0707" fill-opacity="1.00" />			<path d="M720.207,72.4678 L751.418,99.5337 L759.303,59.0546 L728.323,32.2168 L720.207,72.4678 Z " fill="#ff0707" fill-opacity="1.00" />			<path d="M761.238,77.0296 L758.66,77.9142 C757.923,78.167 757.222,78.4663 756.557,78.8122 C755.891,79.1582 755.32,79.5795 754.844,80.0763 C754.367,80.5731 754.047,81.1535 753.883,81.8176 C753.718,82.4817 753.787,83.2522 754.088,84.1292 C754.473,85.2517 755.239,86.0279 756.386,86.4577 C757.534,86.8874 758.756,86.8797 760.054,86.4344 C761.282,86.0131 762.185,85.3308 762.763,84.3875 C763.341,83.4442 763.585,82.4393 763.493,81.3728 L772.789,80.1832 C772.922,81.9413 772.763,83.5348 772.312,84.9637 C771.861,86.3926 771.177,87.6565 770.26,88.7552 C769.344,89.854 768.232,90.8137 766.925,91.6344 C765.619,92.4551 764.177,93.1362 762.598,93.6778 C760.949,94.2434 759.293,94.5863 757.628,94.7064 C755.964,94.8266 754.406,94.6555 752.953,94.1932 C751.501,93.7309 750.21,92.9681 749.08,91.9049 C747.951,90.8416 747.079,89.4155 746.466,87.6264 C745.755,85.5567 745.691,83.5986 746.273,81.7522 C746.855,79.9058 748.109,78.417 750.034,77.286 L749.98,77.1281 C748.809,77.3729 747.704,77.3797 746.664,77.1484 C745.624,76.917 744.674,76.5178 743.812,75.9506 C742.951,75.3835 742.194,74.6629 741.542,73.789 C740.889,72.9151 740.376,71.9344 740.003,70.847 C739.365,68.9877 739.165,67.2332 739.403,65.5833 C739.641,63.9334 740.205,62.436 741.096,61.0912 C741.988,59.7464 743.171,58.5661 744.645,57.5504 C746.12,56.5348 747.77,55.714 749.594,55.0882 C752.926,53.9448 756.059,53.7327 758.991,54.4518 C761.924,55.1709 764.348,57.0643 766.263,60.1321 L758.617,64.9314 C757.879,63.6946 756.948,62.8378 755.824,62.3609 C754.699,61.884 753.295,61.9344 751.612,62.5121 C749.893,63.1019 748.774,63.9854 748.257,65.1628 C747.739,66.3401 747.721,67.6304 748.203,69.0336 C748.564,70.086 749.063,70.8263 749.7,71.2547 C750.337,71.6831 751.055,71.9172 751.852,71.9572 C752.65,71.9971 753.497,71.8929 754.392,71.6447 C755.287,71.3964 756.173,71.1218 757.05,70.821 L758.892,70.1891 L761.238,77.0296 Z " fill="#f30005" fill-opacity="1.00" />			<path d="M841.789,-233.35 L810.514,-260.342 L802.724,-219.845 L833.767,-193.08 L841.789,-233.35 Z " fill="#ff0707" fill-opacity="1.00" />			<path d="M798.287,-283.929 L800.863,-284.82 C801.599,-285.074 802.299,-285.375 802.964,-285.723 C803.629,-286.07 804.199,-286.493 804.674,-286.991 C805.149,-287.489 805.468,-288.07 805.631,-288.734 C805.794,-289.399 805.724,-290.169 805.421,-291.045 C805.033,-292.167 804.265,-292.941 803.117,-293.369 C801.968,-293.796 800.746,-293.785 799.449,-293.337 C798.222,-292.912 797.321,-292.228 796.745,-291.283 C796.169,-290.339 795.928,-289.333 796.022,-288.267 L786.729,-287.055 C786.592,-288.813 786.747,-290.407 787.194,-291.837 C787.642,-293.267 788.323,-294.533 789.237,-295.633 C790.151,-296.734 791.261,-297.697 792.565,-298.52 C793.87,-299.344 795.311,-300.029 796.888,-300.574 C798.535,-301.144 800.191,-301.49 801.855,-301.614 C803.519,-301.738 805.078,-301.571 806.532,-301.112 C807.985,-300.653 809.278,-299.894 810.41,-298.833 C811.542,-297.772 812.416,-296.348 813.034,-294.561 C813.749,-292.493 813.818,-290.535 813.24,-288.687 C812.663,-286.839 811.413,-285.347 809.49,-284.212 L809.545,-284.054 C810.715,-284.302 811.82,-284.311 812.861,-284.082 C813.901,-283.853 814.853,-283.456 815.715,-282.891 C816.577,-282.326 817.336,-281.607 817.991,-280.735 C818.646,-279.862 819.161,-278.883 819.536,-277.796 C820.179,-275.939 820.383,-274.185 820.149,-272.534 C819.915,-270.884 819.354,-269.385 818.466,-268.038 C817.578,-266.691 816.398,-265.508 814.925,-264.489 C813.453,-263.47 811.805,-262.645 809.983,-262.015 C806.653,-260.864 803.521,-260.644 800.587,-261.357 C797.653,-262.069 795.224,-263.957 793.302,-267.02 L800.937,-271.837 C801.677,-270.602 802.611,-269.747 803.736,-269.273 C804.861,-268.799 806.265,-268.853 807.948,-269.434 C809.665,-270.028 810.781,-270.914 811.296,-272.093 C811.811,-273.271 811.826,-274.562 811.341,-275.964 C810.977,-277.015 810.477,-277.754 809.839,-278.181 C809.2,-278.608 808.482,-278.841 807.684,-278.879 C806.886,-278.917 806.04,-278.811 805.146,-278.56 C804.251,-278.31 803.366,-278.033 802.49,-277.73 L800.649,-277.094 L798.287,-283.929 Z " fill="#f30005" fill-opacity="1.00" />			<path d="M932.375,66.4833 L753.479,125.388 L715.332,9.5335 C707.259,-14.9834 740.686,-48.0141 790.003,-64.2527 C839.32,-80.4913 886.154,-73.8882 894.227,-49.3713 L932.375,66.4833 Z " fill="none" stroke-width="2.72" stroke="#000000" stroke-linecap="square" stroke-linejoin="miter" />			<path d="M788.318,-75.418 C837.415,-92.4967 875.777,-110.627 873.921,-115.963 L835.246,-227.143 C830.296,-241.374 786.427,-239.076 737.33,-221.998 C688.233,-204.919 652.408,-179.495 657.358,-165.264 L696.033,-54.0845 C697.889,-48.7479 739.221,-58.3394 788.318,-75.418 Z " fill="none" stroke-width="3.04" stroke="#000000" stroke-linecap="square" stroke-linejoin="miter" />			<path d="M947.167,-301.013 L955.469,82.7692 C955.717,94.2571 946.559,103.82 935.071,104.069 L741.478,108.256 C729.99,108.505 720.427,99.3467 720.179,87.8588 L711.877,-295.923 C711.629,-307.411 720.787,-316.974 732.275,-317.223 L925.868,-321.411 C937.356,-321.659 946.919,-312.501 947.167,-301.013 Z " fill="#ffffff" fill-opacity="1.00" stroke-width="0.96" stroke="#000000" stroke-linecap="square" stroke-linejoin="miter" />			<path d="M196.609,-206.851 C196.609,-180.021 174.859,-158.27 148.028,-158.27 C121.198,-158.27 99.4474,-180.021 99.4474,-206.851 C99.4474,-233.682 121.198,-255.432 148.028,-255.432 C174.859,-255.432 196.609,-233.682 196.609,-206.851 Z M85.2692,-206.851 C85.2692,-180.021 63.5188,-158.27 36.6883,-158.27 C9.85776,-158.27 -11.8927,-180.021 -11.8927,-206.851 C-11.8927,-233.682 9.85776,-255.432 36.6883,-255.432 C63.5188,-255.432 85.2692,-233.682 85.2692,-206.851 Z " fill="#e7253a" fill-opacity="1.00" />			<path d="M308.669,-206.851 C308.669,-180.021 286.919,-158.27 260.088,-158.27 C233.258,-158.27 211.507,-180.021 211.507,-206.851 C211.507,-233.682 233.258,-255.432 260.088,-255.432 C286.919,-255.432 308.669,-233.682 308.669,-206.851 Z M197.329,-206.851 C197.329,-180.021 175.579,-158.27 148.748,-158.27 C121.918,-158.27 100.167,-180.021 100.167,-206.851 C100.167,-233.682 121.918,-255.432 148.748,-255.432 C175.579,-255.432 197.329,-233.682 197.329,-206.851 Z " fill="#e7253a" fill-opacity="1.00" />			<path d="M262.423,-109.689 C262.423,-82.8587 240.673,-61.1083 213.842,-61.1083 C187.012,-61.1083 165.261,-82.8587 165.261,-109.689 C165.261,-136.52 187.012,-158.27 213.842,-158.27 C240.673,-158.27 262.423,-136.52 262.423,-109.689 Z M151.083,-109.689 C151.083,-82.8587 129.333,-61.1083 102.502,-61.1083 C75.6716,-61.1083 53.9212,-82.8587 53.9212,-109.689 C53.9212,-136.52 75.6716,-158.27 102.502,-158.27 C129.333,-158.27 151.083,-136.52 151.083,-109.689 Z " fill="#9bd872" fill-opacity="1.00" />			<path d="M374.483,-109.689 C374.483,-82.8587 352.733,-61.1083 325.902,-61.1083 C299.072,-61.1083 277.321,-82.8587 277.321,-109.689 C277.321,-136.52 299.072,-158.27 325.902,-158.27 C352.733,-158.27 374.483,-136.52 374.483,-109.689 Z M263.143,-109.689 C263.143,-82.8587 241.393,-61.1083 214.562,-61.1083 C187.732,-61.1083 165.981,-82.8587 165.981,-109.689 C165.981,-136.52 187.732,-158.27 214.562,-158.27 C241.393,-158.27 263.143,-136.52 263.143,-109.689 Z " fill="#9bd872" fill-opacity="1.00" />			<path d="M196.609,154.258 C196.609,181.088 174.859,202.839 148.028,202.839 C121.198,202.839 99.4473,181.088 99.4473,154.258 C99.4473,127.427 121.198,105.677 148.028,105.677 C174.859,105.677 196.609,127.427 196.609,154.258 Z M85.269,154.258 C85.269,181.088 63.5186,202.839 36.6881,202.839 C9.85759,202.839 -11.8929,181.088 -11.8929,154.258 C-11.8929,127.427 9.85759,105.677 36.6881,105.677 C63.5186,105.677 85.269,127.427 85.269,154.258 Z " fill="#e7253a" fill-opacity="1.00" />			<path d="M308.669,154.258 C308.669,181.088 286.919,202.838 260.088,202.838 C233.258,202.838 211.507,181.088 211.507,154.258 C211.507,127.427 233.258,105.677 260.088,105.677 C286.919,105.677 308.669,127.427 308.669,154.258 Z M197.329,154.258 C197.329,181.088 175.579,202.838 148.748,202.838 C121.918,202.838 100.167,181.088 100.167,154.258 C100.167,127.427 121.918,105.677 148.748,105.677 C175.579,105.677 197.329,127.427 197.329,154.258 Z " fill="#e7253a" fill-opacity="1.00" />			<path d="M261.914,251.419 C261.914,278.25 240.164,300 213.333,300 C186.503,300 164.752,278.25 164.752,251.419 C164.752,224.589 186.503,202.838 213.333,202.838 C240.164,202.838 261.914,224.589 261.914,251.419 Z M150.574,251.419 C150.574,278.25 128.824,300 101.993,300 C75.1627,300 53.4123,278.25 53.4123,251.419 C53.4123,224.589 75.1627,202.838 101.993,202.838 C128.824,202.838 150.574,224.589 150.574,251.419 Z " fill="#9bd872" fill-opacity="1.00" />			<path d="M374.483,251.419 C374.483,278.25 352.733,300 325.902,300 C299.072,300 277.321,278.25 277.321,251.419 C277.321,224.589 299.072,202.838 325.902,202.838 C352.733,202.838 374.483,224.589 374.483,251.419 Z M263.143,251.419 C263.143,278.25 241.393,300 214.562,300 C187.732,300 165.981,278.25 165.981,251.419 C165.981,224.589 187.732,202.838 214.562,202.838 C241.393,202.838 263.143,224.589 263.143,251.419 Z " fill="#9bd872" fill-opacity="1.00" />			<path d="M183.036,91.2726 L229.601,47.2355 L205.254,47.2355 L205.254,-41.77 L160.685,-41.77 L160.685,47.2355 L136.471,47.2355 L183.036,91.2726 Z " fill="#000202" fill-opacity="1.00" />			<path d="M302.178,179.021 C306.359,171.833 308.706,163.472 308.706,154.597 C308.706,127.607 286.849,105.677 259.785,105.677 L259.785,154.597 L302.178,179.021 Z " fill="#9bd872" fill-opacity="1.00" />			<path d="M238.126,208.659 C230.939,204.479 222.577,202.132 213.703,202.132 C186.712,202.132 164.782,223.988 164.782,251.052 L213.703,251.052 L238.126,208.659 Z " fill="#e7253a" fill-opacity="1.00" />			<path d="M36.7649,105.677 C9.92943,105.677 -11.7945,127.401 -11.7945,154.236 C-11.7945,181.072 9.92943,202.795 36.7649,202.795 L36.7649,105.677 Z " fill="#9bd872" fill-opacity="1.00" />			<path d="M99.2906,153.881 C99.2906,181.022 121.262,202.993 148.402,202.993 C175.543,202.993 197.514,181.022 197.514,153.881 L99.2906,153.881 Z " fill="#9bd872" fill-opacity="1.00" />			<path d="M52.966,250.789 C52.966,277.93 74.9371,299.901 102.078,299.901 C129.219,299.901 151.19,277.93 151.19,250.789 L52.966,250.789 Z " fill="#e7253a" fill-opacity="1.00" />			<path d="M284.649,276.654 C297.66,299.188 326.891,306.634 349.99,293.298 C373.09,279.962 381.257,250.923 368.246,228.389 L284.649,276.654 Z " fill="#e7253a" fill-opacity="1.00" />			<g>				<path d="M435.842,226.921 C435.114,281.62 435.426,330.08 332.58,330.184 " fill="none" stroke-width="6.96" stroke="#000000" stroke-linecap="square" stroke-linejoin="miter" />				<path d="M435.744,-178.617 C435.016,-233.316 435.328,-281.775 332.481,-281.879 " fill="none" stroke-width="6.96" stroke="#000000" stroke-linecap="square" stroke-linejoin="miter" />				<path d="M435.796,228.903 L435.796,-178.849 " fill="none" stroke-width="6.96" stroke="#000000" stroke-linecap="square" stroke-linejoin="miter" />				<path d="M438.337,3.36455 L541.599,3.36452 " fill="none" stroke-width="6.96" stroke="#000000" stroke-linecap="square" stroke-linejoin="miter" />			</g>			<path d="M510.662,-13.991 L547.55,2.96226 L510.662,19.8815 " fill="none" stroke-width="6.96" stroke="#000202" stroke-linecap="square" stroke-linejoin="miter" />			<g>				<path d="M740.466,-242.172 C744.197,-248.586 746.291,-256.048 746.291,-263.967 C746.291,-288.053 726.787,-307.623 702.635,-307.623 L702.635,-263.967 L740.466,-242.172 Z " fill="#000202" fill-opacity="1.00" />				<path d="M702.676,-266.37 C710.096,-266.347 717.605,-268.263 724.463,-272.223 C745.322,-284.266 752.518,-310.942 740.442,-331.858 L702.635,-310.03 L702.676,-266.37 Z " fill="#000202" fill-opacity="1.00" />				<path d="M702.635,-309.993 C706.325,-303.555 711.739,-298.011 718.598,-294.051 C739.457,-282.008 766.157,-289.115 778.233,-310.03 L740.426,-331.858 L702.635,-309.993 Z " fill="#000202" fill-opacity="1.00" />				<path d="M740.402,-331.821 C736.671,-325.407 734.577,-317.945 734.577,-310.026 C734.577,-285.94 754.081,-266.37 778.233,-266.37 L778.233,-310.026 L740.402,-331.821 Z " fill="#000202" fill-opacity="1.00" />				<path d="M778.204,-307.622 C770.784,-307.646 763.275,-305.729 756.416,-301.77 C735.557,-289.727 728.362,-263.05 740.437,-242.135 L778.244,-263.963 L778.204,-307.622 Z " fill="#000202" fill-opacity="1.00" />				<path d="M736.158,-288.193 L746.291,-288.193 L740.467,-279.895 L730.334,-279.895 L736.158,-288.193 Z " fill="#000202" fill-opacity="1.00" />				<path d="M740.462,-247.642 C743.75,-253.293 745.595,-259.868 745.595,-266.846 C745.595,-288.07 728.409,-305.314 707.128,-305.314 L707.128,-266.846 L740.462,-247.642 Z " fill="#ffffff" fill-opacity="1.00" />				<path d="M707.163,-268.964 C713.701,-268.943 720.318,-270.632 726.361,-274.121 C744.741,-284.733 751.082,-308.239 740.441,-326.668 L707.128,-307.435 L707.163,-268.964 Z " fill="#ffffff" fill-opacity="1.00" />				<path d="M707.128,-307.402 C710.379,-301.73 715.15,-296.844 721.193,-293.355 C739.573,-282.743 763.1,-289.005 773.74,-307.435 L740.427,-326.669 L707.128,-307.402 Z " fill="#ffffff" fill-opacity="1.00" />				<path d="M740.406,-326.636 C737.119,-320.984 735.273,-314.409 735.273,-307.431 C735.273,-286.208 752.459,-268.964 773.74,-268.964 L773.74,-307.431 L740.406,-326.636 Z " fill="#ffffff" fill-opacity="1.00" />				<path d="M773.715,-305.313 C767.177,-305.334 760.56,-303.645 754.517,-300.156 C736.137,-289.544 729.797,-266.039 740.437,-247.609 L773.751,-266.842 L773.715,-305.313 Z " fill="#ffffff" fill-opacity="1.00" />				<path d="M736.666,-288.193 L745.595,-288.193 L740.463,-280.881 L731.534,-280.881 L736.666,-288.193 Z " fill="#ffffff" fill-opacity="1.00" />				<path d="M730.758,-277.912 C731.137,-274.666 732.645,-272.42 735.28,-271.177 C736.629,-270.544 738.189,-270.228 739.96,-270.228 C743.333,-270.228 745.831,-271.303 747.454,-273.453 C749.077,-275.604 749.889,-277.986 749.889,-280.6 C749.889,-283.762 748.924,-286.207 746.996,-287.936 C745.067,-289.665 742.753,-290.529 740.055,-290.529 C738.094,-290.529 736.413,-290.15 735.011,-289.391 C733.609,-288.632 732.413,-287.578 731.422,-286.229 L726.489,-286.513 L729.936,-310.894 L753.462,-310.894 L753.462,-305.391 L734.205,-305.391 L732.276,-292.806 C733.33,-293.607 734.331,-294.208 735.28,-294.608 C736.966,-295.304 738.916,-295.652 741.13,-295.652 C745.283,-295.652 748.803,-294.313 751.691,-291.636 C754.579,-288.959 756.024,-285.565 756.024,-281.454 C756.024,-277.174 754.701,-273.401 752.055,-270.133 C749.409,-266.866 745.188,-265.232 739.391,-265.232 C735.701,-265.232 732.439,-266.27 729.604,-268.346 C726.768,-270.423 725.182,-273.611 724.844,-277.912 L730.758,-277.912 Z " fill="#4d4d4d" fill-opacity="1.00" />			</g>			<path d="M650.13,-179.819 C651.647,-187.082 651.28,-194.823 648.781,-202.338 C641.182,-225.194 616.5,-237.61 593.582,-229.99 L607.356,-188.565 L650.13,-179.819 Z " fill="#000202" fill-opacity="1.00" />			<path d="M606.635,-190.858 C613.684,-193.176 620.205,-197.364 625.463,-203.286 C641.457,-221.295 639.869,-248.879 621.811,-264.916 L592.822,-232.275 L606.635,-190.858 Z " fill="#000202" fill-opacity="1.00" />			<path d="M592.834,-232.24 C598.366,-227.295 605.253,-223.742 613.011,-222.148 C636.604,-217.302 659.698,-232.469 664.558,-256.126 L621.795,-264.911 L592.834,-232.24 Z " fill="#000202" fill-opacity="1.00" />			<path d="M621.785,-264.868 C620.268,-257.604 620.635,-249.863 623.134,-242.348 C630.733,-219.493 655.415,-207.076 678.333,-214.696 L664.559,-256.122 L621.785,-264.868 Z " fill="#000202" fill-opacity="1.00" />			<path d="M665.291,-253.832 C658.242,-251.514 651.721,-247.326 646.462,-241.404 C630.469,-223.395 632.057,-195.812 650.115,-179.774 L679.104,-212.415 L665.291,-253.832 Z " fill="#000202" fill-opacity="1.00" />			<path d="M631.522,-222.129 L641.138,-225.326 L638.229,-215.615 L628.613,-212.418 L631.522,-222.129 Z " fill="#000202" fill-opacity="1.00" />			<path d="M648.401,-185.007 C649.737,-191.408 649.414,-198.229 647.212,-204.851 C640.516,-224.99 618.767,-235.931 598.573,-229.217 L610.71,-192.714 L648.401,-185.007 Z " fill="#ffffff" fill-opacity="1.00" />			<path d="M610.075,-194.735 C616.286,-196.778 622.032,-200.468 626.666,-205.686 C640.759,-221.554 639.359,-245.86 623.448,-259.991 L597.904,-231.229 L610.075,-194.735 Z " fill="#ffffff" fill-opacity="1.00" />			<path d="M597.914,-231.199 C602.789,-226.841 608.858,-223.711 615.693,-222.306 C636.482,-218.036 656.832,-231.401 661.114,-252.246 L623.434,-259.987 L597.914,-231.199 Z " fill="#ffffff" fill-opacity="1.00" />			<path d="M623.424,-259.949 C622.088,-253.549 622.411,-246.728 624.613,-240.106 C631.309,-219.966 653.058,-209.026 673.252,-215.74 L661.115,-252.242 L623.424,-259.949 Z " fill="#ffffff" fill-opacity="1.00" />			<path d="M661.76,-250.225 C655.549,-248.182 649.803,-244.492 645.169,-239.274 C631.076,-223.405 632.476,-199.1 648.387,-184.968 L673.931,-213.73 L661.76,-250.225 Z " fill="#ffffff" fill-opacity="1.00" />			<path d="M632.005,-222.29 L640.477,-225.107 L637.914,-216.549 L629.441,-213.732 L632.005,-222.29 Z " fill="#ffffff" fill-opacity="1.00" />			<path d="M643.541,-249.448 L645.107,-244.737 C644.172,-242.938 643.112,-239.997 641.925,-235.915 C640.739,-231.833 639.904,-227.578 639.421,-223.152 C638.924,-218.833 638.738,-214.983 638.862,-211.603 C638.94,-209.43 639.251,-205.99 639.794,-201.283 L633.823,-199.297 C632.456,-207.951 632.743,-217.111 634.684,-226.776 C635.841,-232.448 637.355,-237.517 639.225,-241.982 L615.46,-234.08 L613.654,-239.511 L643.541,-249.448 Z " fill="#4d4d4d" fill-opacity="1.00" />			<path d="M590.228,-85.3684 C589.275,-92.7272 586.387,-99.9184 581.558,-106.196 C566.874,-125.288 539.483,-128.91 520.339,-114.186 L546.954,-79.5812 L590.228,-85.3684 Z " fill="#000202" fill-opacity="1.00" />			<path d="M545.521,-81.5107 C551.417,-86.0155 556.2,-92.1129 559.223,-99.433 C568.415,-121.696 557.856,-147.228 535.532,-156.445 L518.871,-116.094 L545.521,-81.5107 Z " fill="#000202" fill-opacity="1.00" />			<path d="M518.894,-116.065 C525.743,-113.211 533.415,-112.117 541.266,-113.159 C565.142,-116.33 581.974,-138.241 578.795,-162.182 L535.519,-156.435 L518.894,-116.065 Z " fill="#000202" fill-opacity="1.00" />			<path d="M535.523,-156.391 C536.476,-149.032 539.365,-141.841 544.193,-135.564 C558.877,-116.472 586.268,-112.85 605.412,-127.574 L578.798,-162.178 L535.523,-156.391 Z " fill="#000202" fill-opacity="1.00" />			<path d="M580.24,-160.256 C574.344,-155.751 569.56,-149.654 566.538,-142.334 C557.346,-120.071 567.905,-94.5386 590.228,-85.3215 L606.889,-125.673 L580.24,-160.256 Z " fill="#000202" fill-opacity="1.00" />			<path d="M558.757,-119.221 L566.789,-125.399 L567.231,-115.27 L559.199,-109.093 L558.757,-119.221 Z " fill="#000202" fill-opacity="1.00" />			<path d="M586.891,-89.7017 C586.051,-96.1858 583.506,-102.522 579.251,-108.054 C566.312,-124.877 542.177,-128.068 525.308,-115.094 L548.76,-84.6022 L586.891,-89.7017 Z " fill="#ffffff" fill-opacity="1.00" />			<path d="M547.497,-86.3023 C552.692,-90.2718 556.907,-95.6445 559.57,-102.095 C567.67,-121.711 558.366,-144.209 538.695,-152.331 L524.015,-116.775 L547.497,-86.3023 Z " fill="#ffffff" fill-opacity="1.00" />			<path d="M524.034,-116.75 C530.07,-114.235 536.83,-113.271 543.748,-114.19 C564.786,-116.984 579.618,-136.29 576.816,-157.386 L538.684,-152.322 L524.034,-116.75 Z " fill="#ffffff" fill-opacity="1.00" />			<path d="M538.687,-152.283 C539.527,-145.799 542.073,-139.463 546.327,-133.931 C559.266,-117.108 583.402,-113.917 600.27,-126.891 L576.819,-157.383 L538.687,-152.283 Z " fill="#ffffff" fill-opacity="1.00" />			<path d="M578.09,-155.689 C572.894,-151.719 568.679,-146.347 566.016,-139.897 C557.916,-120.28 567.221,-97.782 586.891,-89.6603 L601.572,-125.216 L578.09,-155.689 Z " fill="#ffffff" fill-opacity="1.00" />			<path d="M559.16,-119.531 L566.237,-124.974 L566.627,-116.05 L559.549,-110.606 L559.16,-119.531 Z " fill="#ffffff" fill-opacity="1.00" />			<path d="M564.059,-99.3194 C560.353,-100.179 557.215,-102.28 554.644,-105.622 L559.357,-109.246 C561.344,-107.078 563.076,-105.724 564.554,-105.185 C567.176,-104.197 570.016,-104.878 573.074,-107.23 C575.447,-109.055 576.864,-111.156 577.324,-113.531 C577.785,-115.906 577.244,-118.096 575.701,-120.102 C573.799,-122.575 571.713,-123.723 569.442,-123.545 C567.172,-123.368 564.691,-122.245 562.001,-120.176 C561.7,-119.945 561.398,-119.706 561.096,-119.46 C560.793,-119.214 560.489,-118.96 560.185,-118.699 L557.119,-122.685 C557.626,-122.994 558.044,-123.263 558.375,-123.49 C558.705,-123.718 559.054,-123.973 559.421,-124.256 C561.109,-125.554 562.291,-126.888 562.965,-128.258 C564.151,-130.659 563.818,-133.063 561.967,-135.469 C560.592,-137.257 558.897,-138.147 556.881,-138.14 C554.866,-138.132 553.014,-137.479 551.327,-136.181 C548.319,-133.868 547.009,-131.265 547.399,-128.373 C547.612,-126.782 548.461,-124.935 549.945,-122.832 L545.484,-119.4 C543.427,-122.074 542.214,-124.758 541.844,-127.452 C541.112,-132.208 543.06,-136.365 547.689,-139.926 C551.348,-142.74 554.807,-144.104 558.066,-144.017 C561.324,-143.93 564.142,-142.341 566.52,-139.249 C568.216,-137.044 568.998,-134.799 568.865,-132.517 C568.786,-131.099 568.347,-129.698 567.55,-128.314 C569.837,-129.248 572.08,-129.384 574.278,-128.721 C576.477,-128.058 578.398,-126.657 580.044,-124.518 C582.678,-121.093 583.697,-117.435 583.099,-113.544 C582.501,-109.653 580.13,-106.114 575.985,-102.927 C571.741,-99.6624 567.766,-98.4599 564.059,-99.3194 Z " fill="#4d4d4d" fill-opacity="1.00" />			<path d="M932.374,80.6737 L744.031,80.6737 L744.031,-41.2997 C744.031,-67.1115 786.111,-88.0308 838.033,-88.0308 C889.955,-88.0308 932.374,-67.1115 932.374,-41.2997 L932.374,80.6737 Z " fill="none" stroke-width="2.72" stroke="#000000" stroke-linecap="square" stroke-linejoin="miter" />			<path d="M836.828,-98.5623 C888.81,-98.5624 930.999,-103.083 930.999,-108.733 L930.999,-226.447 C930.999,-241.515 888.81,-253.757 836.828,-253.757 C784.845,-253.757 742.656,-241.515 742.656,-226.447 L742.656,-108.733 C742.656,-103.083 784.845,-98.5623 836.828,-98.5623 Z " fill="none" stroke-width="3.04" stroke="#000000" stroke-linecap="square" stroke-linejoin="miter" />			<path d="M-736.126,100.269 C-766.168,100.269 -790.522,75.9151 -790.522,45.8731 C-790.522,15.8311 -766.168,-8.52281 -736.126,-8.52281 C-706.084,-8.52281 -681.73,15.8311 -681.73,45.8731 C-681.73,75.9151 -706.084,100.269 -736.126,100.269 Z M-736.126,-24.3981 C-766.168,-24.3981 -790.522,-48.752 -790.522,-78.794 C-790.522,-108.836 -766.168,-133.19 -736.126,-133.19 C-706.084,-133.19 -681.73,-108.836 -681.73,-78.794 C-681.73,-48.752 -706.084,-24.3981 -736.126,-24.3981 Z " fill="#000000" fill-opacity="1.00" stroke-width="3.04" stroke="#000000" stroke-linecap="square" stroke-linejoin="miter" />			<path d="M-791.075,186.917 C-883.003,186.917 -957.485,124.452 -957.485,47.354 C-957.485,-29.7437 -883.003,-92.2095 -791.075,-92.2095 " fill="none" stroke-width="3.04" stroke="#000000" stroke-linecap="square" stroke-linejoin="miter" />			<path d="M-736.126,224.493 C-766.168,224.493 -790.522,200.139 -790.522,170.097 C-790.522,140.055 -766.168,115.701 -736.126,115.701 C-706.084,115.701 -681.73,140.055 -681.73,170.097 C-681.73,200.139 -706.084,224.493 -736.126,224.493 Z M-736.126,99.8259 C-766.168,99.8259 -790.522,75.472 -790.522,45.43 C-790.522,15.388 -766.168,-8.96595 -736.126,-8.96595 C-706.084,-8.96595 -681.73,15.388 -681.73,45.43 C-681.73,75.472 -706.084,99.8259 -736.126,99.8259 Z " fill="#000000" fill-opacity="1.00" stroke-width="3.04" stroke="#000000" stroke-linecap="square" stroke-linejoin="miter" />			<path d="M-517.151,164.365 C-547.193,164.365 -571.547,140.011 -571.547,109.969 C-571.547,79.9268 -547.193,55.5729 -517.151,55.5729 C-487.109,55.5729 -462.755,79.9268 -462.755,109.969 C-462.755,140.011 -487.109,164.365 -517.151,164.365 Z M-517.151,39.6976 C-547.193,39.6976 -571.547,15.3437 -571.547,-14.6983 C-571.547,-44.7403 -547.193,-69.0943 -517.151,-69.0943 C-487.109,-69.0943 -462.755,-44.7403 -462.755,-14.6983 C-462.755,15.3437 -487.109,39.6976 -517.151,39.6976 Z " fill="#000000" fill-opacity="1.00" stroke-width="3.04" stroke="#000000" stroke-linecap="square" stroke-linejoin="miter" />			<path d="M-345.989,83.9644 C-367.241,62.712 -367.241,28.3035 -345.989,7.05114 C-324.736,-14.2012 -290.328,-14.2012 -269.075,7.05115 C-247.823,28.3035 -247.823,62.712 -269.075,83.9644 C-290.328,105.217 -324.736,105.217 -345.989,83.9644 Z " fill="#000000" fill-opacity="1.00" stroke-width="3.04" stroke="#000000" stroke-linecap="square" stroke-linejoin="miter" />			<path d="M-737.554,47.6353 L-949.504,47.6353 " fill="none" stroke-width="3.04" stroke="#000000" stroke-linecap="square" stroke-linejoin="miter" />			<path d="M-908.266,47.717 L-971.832,47.717 " fill="none" stroke-width="3.04" stroke="#000000" stroke-linecap="square" stroke-linejoin="miter" />			<path d="M-523.11,-21.4599 L-721.998,51.7973 " fill="none" stroke-width="3.04" stroke="#000000" stroke-linecap="square" stroke-linejoin="miter" />			<path d="M-523.983,118.208 L-721.145,40.4282 " fill="none" stroke-width="3.04" stroke="#000000" stroke-linecap="square" stroke-linejoin="miter" />			<path d="M-512.526,-22.1574 L-313.639,51.0999 " fill="none" stroke-width="3.04" stroke="#000000" stroke-linecap="square" stroke-linejoin="miter" />			<path d="M-511.654,117.511 L-314.492,39.7308 " fill="none" stroke-width="3.04" stroke="#000000" stroke-linecap="square" stroke-linejoin="miter" />			<path d="M-681.747,-94.254 C-637.537,-118.989 -575.807,-102.017 -550.385,-57.9854 " fill="none" stroke-width="3.04" stroke="#000000" stroke-linecap="square" stroke-linejoin="miter" />			<path d="M-681.736,180.208 C-637.525,204.943 -575.796,187.971 -550.374,143.939 " fill="none" stroke-width="3.04" stroke="#000000" stroke-linecap="square" stroke-linejoin="miter" />			<path d="M-688.384,164.431 C-662.464,120.904 -600.519,104.738 -556.487,130.159 " fill="none" stroke-width="3.04" stroke="#000000" stroke-linecap="square" stroke-linejoin="miter" />			<path d="M-569.025,-33.0338 C-616.083,-14.2748 -675.073,-39.1511 -694.536,-86.1212 " fill="none" stroke-width="3.04" stroke="#000000" stroke-linecap="square" stroke-linejoin="miter" />			<path d="M-833.743,-67.3754 L-775.072,-94.301 L-838.638,-105.738 L-833.743,-67.3754 Z " fill="#000000" fill-opacity="1.00" stroke-width="3.04" stroke="#000000" stroke-linecap="square" stroke-linejoin="miter" />			<path d="M-838.763,66.9719 L-777.156,47.6891 L-838.763,28.2986 L-838.763,66.9719 Z " fill="#000000" fill-opacity="1.00" stroke-width="3.04" stroke="#000000" stroke-linecap="square" stroke-linejoin="miter" />			<path d="M-608.755,-278.307 L-672.404,-298.229 L-608.755,-318.263 L-608.755,-278.307 Z " fill="#000000" fill-opacity="1.00" stroke-width="3.04" stroke="#000000" stroke-linecap="square" stroke-linejoin="miter" />			<path d="M-833.322,207.103 L-771.715,187.82 L-833.322,168.43 L-833.322,207.103 Z " fill="#000000" fill-opacity="1.00" stroke-width="3.04" stroke="#000000" stroke-linecap="square" stroke-linejoin="miter" />			<path d="M-175.917,44.7466 L-194.828,34.5244 L-194.828,40.8621 L-278.139,40.8621 L-278.139,49.4488 L-194.828,49.4488 L-194.828,55.7865 L-175.917,44.7466 Z " fill="#000000" fill-opacity="1.00" stroke-width="3.04" stroke="#000000" stroke-linecap="square" stroke-linejoin="miter" />			<path d="M-957.011,40.4669 C-957.011,-147.318 -812.118,-299.464 -633.285,-299.464 C-454.452,-299.464 -309.559,-147.318 -309.559,40.4669 " fill="none" stroke-width="3.04" stroke="#000000" stroke-linecap="square" stroke-linejoin="miter" />			<path d="M-151.175,5.41294 L-18.1323,5.41294 " fill="none" stroke-width="5.44" stroke="#000000" stroke-linecap="square" stroke-linejoin="miter" />			<path d="M-84.6536,-61.1083 L-84.6535,71.9343 " fill="none" stroke-width="5.44" stroke="#000000" stroke-linecap="square" stroke-linejoin="miter" />		</g>	</svg>